<svg xmlns="http://www.w3.org/2000/svg" viewBox="0 0 640 460" width="640" height="460">
  <rect width="640" height="460" fill="#0f1117"/>
  <!-- browser chrome -->
  <rect width="640" height="40" fill="#1c1f26"/>
  <circle cx="18" cy="20" r="6" fill="#ff5f57"/><circle cx="36" cy="20" r="6" fill="#febc2e"/><circle cx="54" cy="20" r="6" fill="#28c840"/>
  <rect x="70" y="10" width="500" height="20" rx="10" fill="#2a2d35"/>
  <text x="320" y="24" font-family="monospace" font-size="11" fill="#6b7280" text-anchor="middle">ojoalprecio.com</text>
  <!-- site header -->
  <rect y="40" width="640" height="48" fill="#161b22"/>
  <text x="24" y="70" font-family="Arial" font-weight="bold" font-size="20" fill="#f97316">👁 Ojo al Precio</text>
  <text x="580" y="70" font-family="Arial" font-size="13" fill="#4b5563" text-anchor="end">Alertas · Historial</text>
  <!-- search -->
  <rect x="20" y="102" width="600" height="34" rx="8" fill="#1e2128" stroke="#30363d" stroke-width="1"/>
  <text x="40" y="123" font-family="Arial" font-size="12" fill="#4b5563">🔍  Pega un enlace de Amazon.es...</text>
  <!-- product card 1 -->
  <rect x="20" y="150" width="600" height="110" rx="10" fill="#161b22" stroke="#30363d" stroke-width="1"/>
  <rect x="36" y="166" width="76" height="76" rx="8" fill="#1e2128"/>
  <text x="74" y="212" font-family="Arial" font-size="28" text-anchor="middle">🎧</text>
  <text x="130" y="184" font-family="Arial" font-weight="600" font-size="13" fill="#e2e8f0">Sony WH-1000XM5</text>
  <text x="130" y="204" font-family="Arial" font-size="12" fill="#f97316" font-weight="700">€ 279.00</text>
  <text x="130" y="222" font-family="Arial" font-size="11" fill="#6b7280">Mín histórico: € 249.00 · Hace 3 días</text>
  <rect x="130" y="232" width="108" height="18" rx="9" fill="rgba(34,197,94,0.12)" stroke="rgba(34,197,94,0.35)" stroke-width="1"/>
  <text x="184" y="244" font-family="Arial" font-size="10" fill="#22c55e" text-anchor="middle">✓ Alerta activa</text>
  <!-- sparkline -->
  <rect x="460" y="166" width="144" height="76" rx="6" fill="#0d1117"/>
  <polyline points="468,230 484,218 500,222 516,210 532,214 548,198 564,205 596,192" stroke="#f97316" stroke-width="2" fill="none" stroke-linejoin="round"/>
  <polygon points="468,230 484,218 500,222 516,210 532,214 548,198 564,205 596,192 596,242 468,242" fill="rgba(249,115,22,0.08)"/>
  <!-- product card 2 -->
  <rect x="20" y="274" width="290" height="90" rx="10" fill="#161b22" stroke="#30363d" stroke-width="1"/>
  <rect x="36" y="290" width="56" height="56" rx="6" fill="#1e2128"/>
  <text x="64" y="324" font-family="Arial" font-size="22" text-anchor="middle">🎮</text>
  <text x="104" y="308" font-family="Arial" font-weight="600" font-size="12" fill="#e2e8f0">PS5 DualSense</text>
  <text x="104" y="326" font-family="Arial" font-size="13" fill="#3b82f6" font-weight="700">€ 54.99</text>
  <text x="104" y="344" font-family="Arial" font-size="10" fill="#22c55e">↓ 18% vs precio máx</text>
  <!-- product card 3 -->
  <rect x="330" y="274" width="290" height="90" rx="10" fill="#161b22" stroke="#30363d" stroke-width="1"/>
  <rect x="346" y="290" width="56" height="56" rx="6" fill="#1e2128"/>
  <text x="374" y="324" font-family="Arial" font-size="22" text-anchor="middle">⌨️</text>
  <text x="414" y="308" font-family="Arial" font-weight="600" font-size="12" fill="#e2e8f0">Keychron K8 Pro</text>
  <text x="414" y="326" font-family="Arial" font-size="13" fill="#f97316" font-weight="700">€ 89.00</text>
  <text x="414" y="344" font-family="Arial" font-size="10" fill="#f97316">↑ Precio mín histórico</text>
  <!-- bottom bar -->
  <rect y="390" width="640" height="70" fill="#0d1117"/>
  <line x1="0" y1="390" x2="640" y2="390" stroke="#30363d" stroke-width="1"/>
  <text x="320" y="430" font-family="Arial" font-size="12" fill="#4b5563" text-anchor="middle">6 productos monitorizados · 3 alertas activas esta semana</text>
</svg>
